<?xml version="1.0" standalone="no"?>
<!DOCTYPE svg PUBLIC "-//W3C//DTD SVG 1.1//EN" "http://www.w3.org/Graphics/SVG/1.1/DTD/svg11.dtd" >
<svg xmlns="http://www.w3.org/2000/svg">
<metadata></metadata>
<defs>
<font id="MINITypev2RegularRegular" horiz-adv-x="1188" vert-adv-y="2048" >
<font-face units-per-em="2048" ascent="1638" descent="-410" />
<missing-glyph horiz-adv-x="512" />
<glyph horiz-adv-x="0" vert-adv-y="0" />
<glyph horiz-adv-x="2048" vert-adv-y="1433" />
<glyph unicode=" " horiz-adv-x="512" vert-adv-y="1433" />
<glyph unicode="!" horiz-adv-x="637" vert-adv-y="1433" d="M176 105q0 70 39.5 108.5t102 38.5t102 -39t39.5 -105.5t-43 -102.5t-96.5 -36t-98.5 33t-45 103zM180 1309q0 91 42.5 131.5t102 40.5t95 -50t35.5 -126q0 -26 -11 -172l-47 -619h-159l-48 619l-3 43l-3 33q-4 54 -4 100z" />
<glyph unicode="&#x22;" horiz-adv-x="936" vert-adv-y="1433" d="M121 1454q0 64 38 98.5t97.5 34.5t91 -41.5t31.5 -93.5q0 -13 -19 -152l-43 -321h-135l-43 321q-18 135 -18 154zM559 1454q0 64 37.5 98.5t97.5 34.5t91.5 -41.5t31.5 -95.5q0 -14 -18 -150l-43 -321h-135l-43 321q-19 139 -19 154z" />
<glyph unicode="#" horiz-adv-x="1495" vert-adv-y="1433" d="M82 301l37 152h215l119 538h-220l37 152h217l68 301h174l-67 -301h360l68 301h174l-68 -301h217l-35 -152h-217l-119 -538h218l-35 -152h-217l-68 -301h-174l68 301h-361l-67 -301h-175l68 301h-217zM508 453h360l119 538h-360z" />
<glyph unicode="$" horiz-adv-x="1079" vert-adv-y="1433" d="M94 1044q0 178 122 279q93 78 255 102v162h129v-153q187 0 320 -37v-164q-131 30 -320 35v-465l92 -43q167 -78 228 -166t61 -218q0 -189 -137 -295q-91 -72 -244 -97v-179h-129v168h-10q-175 0 -346 41v176q156 -49 344 -49h12v508l-96 43q-125 56 -184 115 q-97 97 -97 237zM293 1072q0 -137 135 -200l43 -20v405q-79 -15 -128.5 -65t-49.5 -120zM600 158q178 54 178 208q0 99 -70 163q-38 35 -108 67v-438z" />
<glyph unicode="%" horiz-adv-x="2279" vert-adv-y="1433" d="M164 955q0 245 96.5 364t283 119t283.5 -120t97 -343t-96.5 -342t-286.5 -119q-152 0 -245 80q-132 116 -132 361zM342 975q0 -338 199 -338q204 0 204 338t-201.5 338t-201.5 -338zM684 0l735 1407h174l-735 -1407h-174zM1356 410q0 245 96.5 364t283 119t283.5 -120 t97 -343t-96.5 -342t-286.5 -119q-153 0 -245 80q-132 116 -132 361zM1534 430q0 -338 199 -338q204 0 204 338t-201.5 338t-201.5 -338z" />
<glyph unicode="&#x26;" horiz-adv-x="1479" vert-adv-y="1433" d="M74 441q0 300 340 464q-78 120 -78 250.5t101 228t319 97.5q137 0 293 -47v-170q-157 49 -274 49t-175.5 -46.5t-58.5 -121.5t38.5 -135t131.5 -166l376 -426q93 181 123 446h191q-27 -221 -74.5 -351.5t-114.5 -236.5l246 -276h-262l-113 127q-72 -59 -131 -89 q-151 -75 -348 -75q-242 0 -386 128t-144 350zM279 453q0 -145 95 -230.5t271 -85.5t320 123l-457 516q-229 -117 -229 -323z" />
<glyph unicode="'" horiz-adv-x="541" vert-adv-y="1433" d="M141 1454q0 64 37.5 98.5t97.5 34.5t91.5 -41.5t31.5 -95.5q0 -14 -18 -150l-43 -321h-135l-43 321q-19 139 -19 154z" />
<glyph unicode="(" horiz-adv-x="662" vert-adv-y="1433" d="M141 651q0 495 220 759q96 116 249 177v-196q-112 -85 -172 -218q-90 -198 -90 -522q0 -548 262 -741v-197q-174 61 -294 237q-175 259 -175 701z" />
<glyph unicode=")" horiz-adv-x="662" vert-adv-y="1433" d="M51 -90q119 89 190.5 258.5t71.5 490.5q0 534 -262 732v196q177 -66 294 -237q175 -256 175 -698q0 -501 -222 -764q-102 -120 -247 -175v197z" />
<glyph unicode="*" horiz-adv-x="1028" vert-adv-y="1433" d="M102 1061l48 129l290 -103v361h148v-361l291 103l47 -129l-303 -103l213 -301l-121 -79l-201 286l-201 -286l-120 79l213 301z" />
<glyph unicode="+" vert-adv-y="1433" d="M90 621v163h416v459h174v-459h418v-163h-416v-459h-174v459h-418z" />
<glyph unicode="," horiz-adv-x="541" vert-adv-y="1433" d="M131 112q0 62 39 101t102 39t101.5 -37t38.5 -96t-50 -164l-96 -201h-135l111 232q-111 30 -111 126z" />
<glyph unicode="-" horiz-adv-x="803" vert-adv-y="1433" d="M82 532v205h639v-205h-639z" />
<glyph unicode="." horiz-adv-x="541" vert-adv-y="1433" d="M129 105q0 70 39.5 108.5t102 38.5t102 -39t39.5 -105.5t-43 -102.5t-96.5 -36t-98.5 33t-45 103z" />
<glyph unicode="/" horiz-adv-x="674" vert-adv-y="1433" d="M59 -256l359 1812h176l-358 -1812h-177z" />
<glyph unicode="0" vert-adv-y="1433" d="M61 686.5q0 373.5 136 562.5t396 189t396.5 -188.5t136.5 -545t-136.5 -546t-384 -189.5t-380.5 155q-164 189 -164 562.5zM272 703.5q0 -558.5 318 -558.5q325 0 325 558.5t-321.5 558.5t-321.5 -558.5z" />
<glyph unicode="1" vert-adv-y="1433" d="M250 1124v152l340 131h188v-1407h-201v1206z" />
<glyph unicode="2" vert-adv-y="1433" d="M124 0v150q151 115 333 289.5t264.5 302.5t82.5 267.5t-105 204.5q-75 46 -217 46t-299 -76v182q134 72 369.5 72t360.5 -131q104 -109 104 -304q0 -254 -279 -538q-85 -87 -311 -289h619v-176h-922z" />
<glyph unicode="3" vert-adv-y="1433" d="M138 4v178q140 -35 331.5 -35t299.5 93q84 72 84 201q0 268 -419 268q-72 0 -120 -9v150l455 385h-618v172h860v-150l-447 -403q241 -3 371.5 -111t130.5 -305t-129 -317q-163 -152 -463 -152q-164 0 -336 35z" />
<glyph unicode="4" vert-adv-y="1433" d="M84 307v213l649 887h207v-934h158v-166h-158v-307h-195v307h-661zM248 473h497v680z" />
<glyph unicode="5" vert-adv-y="1433" d="M149 8v178q146 -41 297 -41q398 0 398 300q0 139 -97.5 208.5t-262 69.5t-300.5 -33l27 717h764v-176h-594l-15 -354q84 12 173 12q244 0 379.5 -114t135.5 -339t-175 -353q-155 -114 -408 -114q-163 0 -322 39z" />
<glyph unicode="6" vert-adv-y="1433" d="M92 596q0 338 147 564q182 278 560 278q97 0 178 -15v-161q-59 10 -139 10q-289 0 -413 -183q-72 -106 -105 -276q57 68 135 109t209 41q223 0 340 -149q96 -123 96 -349t-133.5 -361t-355 -135t-351.5 126q-168 163 -168 501zM299 569q0 -207 63 -313q73 -123 239 -123 q292 0 292 349q0 169 -89 249q-71 64 -203.5 64t-231.5 -113q-17 -20 -43.5 -62.5t-26.5 -50.5z" />
<glyph unicode="7" vert-adv-y="1433" d="M136 1231v176h938v-162l-586 -1245h-215l598 1231h-735z" />
<glyph unicode="8" vert-adv-y="1433" d="M76 386q0 153 87 256q49 58 140 108q-86 50 -139 123.5t-53 197.5q0 186 148 284q124 83 360.5 83t368.5 -132q89 -90 89 -240q0 -204 -192 -316q101 -55 152 -122q75 -99 75 -242q0 -218 -164 -328q-131 -89 -354 -89t-357 91q-161 111 -161 326zM281 392 q0 -114 80 -187.5t225 -73.5t233 67.5t88 202.5q0 263 -333 263q-158 0 -239 -94q-54 -64 -54 -178zM311 1048q0 -106 71 -166.5t207 -60.5q288 0 288 231q0 114 -78.5 171t-211.5 57t-204.5 -63t-71.5 -169z" />
<glyph unicode="9" vert-adv-y="1433" d="M88 928.5q0 239.5 133.5 374.5t363.5 135q264 0 399 -190q111 -157 111 -435q0 -341 -148 -566q-182 -278 -558 -278q-98 0 -178 15v161q57 -10 141 -10q244 0 370 135q103 110 146 324q-125 -150 -333 -150t-327.5 122.5t-119.5 362zM295 927q0 -150 71 -232.5 t202 -82.5q195 0 300 186q20 36 20 40q0 209 -62 313q-74 123 -231 123q-300 0 -300 -347z" />
<glyph unicode=":" horiz-adv-x="541" vert-adv-y="1433" d="M129 105q0 70 39.5 108.5t102 38.5t102 -39t39.5 -105.5t-43 -102.5t-96.5 -36t-98.5 33t-45 103zM129 918.5q0 69.5 39.5 108t102 38.5t102 -39t39.5 -107t-43.5 -102.5t-96.5 -34.5t-98 33.5t-45 103z" />
<glyph unicode=";" horiz-adv-x="541" vert-adv-y="1433" d="M129 918.5q0 69.5 39.5 108t102 38.5t102 -39t39.5 -107t-43.5 -102.5t-96.5 -34.5t-98 33.5t-45 103zM131 112q0 62 39 101t102 39t101.5 -37t38.5 -96.5t-50 -163.5l-96 -201h-135l111 232q-111 30 -111 126z" />
<glyph unicode="&#x3c;" vert-adv-y="1433" d="M92 621v163l1006 428v-174l-803 -336l803 -335v-174z" />
<glyph unicode="=" vert-adv-y="1433" d="M90 352v164h1008v-164h-1008zM90 887v164h1008v-164h-1008z" />
<glyph unicode="&#x3e;" vert-adv-y="1433" d="M92 193v174l803 335l-803 336v174l1006 -428v-163z" />
<glyph unicode="?" horiz-adv-x="889" vert-adv-y="1433" d="M51 1247v180q157 54 315 54q218 0 334 -105q99 -88 99 -243t-170 -320q-73 -71 -108.5 -131.5t-35.5 -151.5v-16h-190v39q0 143 70 241q31 43 98.5 107t98 112.5t30.5 116.5q0 177 -262 177q-130 0 -279 -60zM248 104.5q0 69.5 39.5 108t102 38.5t101.5 -39t39 -102 t-39 -102t-96 -39t-102 33t-45 102.5z" />
<glyph unicode="@" horiz-adv-x="1722" vert-adv-y="1433" d="M90 721q0 316 221 538t552 222t550 -220t219 -535q0 -180 -76 -335h-514l-16 154h-354l-90 -154h-174l493 821h207l92 -682h236q30 100 30 199q0 315 -236 486q-161 116 -391.5 116t-405.5 -173t-175 -441t172 -435t443 -167q171 0 281 32v-153q-131 -31 -295 -31 q-305 0 -513 177q-122 104 -189 253.5t-67 327.5zM754 688h258l-41 375z" />
<glyph unicode="A" horiz-adv-x="1272" vert-adv-y="1433" d="M0 0l518 1444h238l516 -1444h-219l-131 387h-580l-133 -387h-209zM406 573h452l-225 662z" />
<glyph unicode="B" horiz-adv-x="1214" vert-adv-y="1433" d="M190 0v1444h422q212 0 321 -99.5t109 -273.5q0 -214 -170 -311q120 -46 178 -126.5t58 -219.5q0 -186 -98 -291q-114 -123 -363 -123h-457zM397 184h234q256 0 256 231.5t-256 231.5h-234v-463zM397 831h205q105 0 164 56.5t59 156t-58.5 158t-164.5 58.5h-205v-429z" />
<glyph unicode="C" horiz-adv-x="1147" vert-adv-y="1433" d="M85 702q0 370 190 568t522 198q157 0 276 -26v-189q-127 29 -260 29q-249 0 -376.5 -150.5t-127.5 -413t140 -409.5t379 -147q156 0 257 26v-190q-119 -23 -290 -23q-283 0 -468 154q-242 203 -242 573z" />
<glyph unicode="D" horiz-adv-x="1409" vert-adv-y="1433" d="M190 0v1444h449q314 0 489 -186.5t175 -535t-175 -535.5t-489 -187h-449zM401 190h242q207 0 321.5 140t114.5 412.5t-150 410.5q-109 100 -286 100h-242v-1063z" />
<glyph unicode="E" horiz-adv-x="1114" vert-adv-y="1433" d="M190 0v1444h768v-191h-557v-422h535v-190h-535v-451h578v-190h-789z" />
<glyph unicode="F" horiz-adv-x="1057" vert-adv-y="1433" d="M190 0v1444h773v-191h-562v-440h539v-190h-539v-623h-211z" />
<glyph unicode="G" horiz-adv-x="1348" vert-adv-y="1433" d="M106 714.5q0 353.5 207 553.5t547 200q132 0 293 -22v-189q-185 25 -284 25q-263 0 -402 -150.5t-139 -412t146 -406.5t380 -145h39q35 0 111 6v397h-232v191h442v-762q-159 -16 -370 -16q-324 0 -517 176q-221 201 -221 554.5z" />
<glyph unicode="H" horiz-adv-x="1481" vert-adv-y="1433" d="M190 0v1444h211v-576h678v576h211v-1444h-211v678h-678v-678h-211z" />
<glyph unicode="I" horiz-adv-x="592" vert-adv-y="1433" d="M190 0v1444h211v-1444h-211z" />
<glyph unicode="J" horiz-adv-x="870" vert-adv-y="1433" d="M-10 -4v186q97 -22 203 -22q159 0 231 69.5t72 214.5v1000h211v-989q0 -234 -123 -357t-367 -123q-113 0 -227 21z" />
<glyph unicode="K" horiz-adv-x="1282" vert-adv-y="1433" d="M190 0v1444h211v-639l586 639h254l-625 -684l687 -760h-273l-629 702v-702h-211z" />
<glyph unicode="L" horiz-adv-x="1022" vert-adv-y="1433" d="M190 0v1444h211v-1254h596v-190h-807z" />
<glyph unicode="M" horiz-adv-x="1749" vert-adv-y="1433" d="M190 0v1444h302l385 -1231l380 1231h302v-1444h-207v1188l-365 -1188h-225l-365 1188v-1188h-207z" />
<glyph unicode="N" horiz-adv-x="1438" vert-adv-y="1433" d="M190 0v1444h244l606 -1120v1120h207v-1444h-231l-619 1133v-1133h-207z" />
<glyph unicode="O" horiz-adv-x="1516" vert-adv-y="1433" d="M106 704.5q0 370.5 176 573.5t474.5 203t475.5 -203.5t177 -555t-177 -555.5t-478 -204q-266 0 -436 165q-212 206 -212 576.5zM330 722.5q0 -262.5 110 -420t306.5 -157.5t318 143t121.5 440.5t-142 451.5q-55 60 -134.5 89t-157.5 29q-202 0 -312 -156.5t-110 -419z " />
<glyph unicode="P" horiz-adv-x="1171" vert-adv-y="1433" d="M190 0v1444h406q247 0 367 -122.5t120 -333t-120.5 -332t-366.5 -121.5h-199v-535h-207zM397 719h191q272 0 272 276q0 134 -72 199.5t-200 65.5h-191v-541z" />
<glyph unicode="Q" horiz-adv-x="1516" vert-adv-y="1433" d="M106 723q0 352 176 555t474.5 203t475.5 -203.5t177 -555.5q0 -419 -256 -630l309 -309h-270l-213 213q-105 -33 -223 -33q-299 0 -474.5 204t-175.5 556zM330 722.5q0 -262.5 110 -420t306.5 -157.5t318 143t121.5 440.5t-142 451.5q-55 60 -134.5 89t-157.5 29 q-202 0 -312 -156.5t-110 -419z" />
<glyph unicode="R" horiz-adv-x="1233" vert-adv-y="1433" d="M190 0v1444h412q457 0 457 -435q0 -282 -223 -386l352 -623h-250l-311 575q-55 -4 -101 -4h-129v-571h-207zM397 756h185q256 0 256 260q0 123 -65 183.5t-183 60.5h-193v-504z" />
<glyph unicode="S" horiz-adv-x="983" vert-adv-y="1433" d="M57 1072q0 183 124 293t362 110q159 0 301 -39v-174q-183 36 -304 36t-199.5 -52t-78.5 -152q0 -140 184 -222l181 -81q155 -69 215.5 -167.5t60.5 -239.5q0 -203 -135.5 -309t-364.5 -106q-152 0 -325 43v189q150 -54 308.5 -54t239.5 74q64 57 64 149.5t-44.5 149 t-143.5 101.5l-180 81q-265 119 -265 370z" />
<glyph unicode="T" horiz-adv-x="1051" vert-adv-y="1433" d="M25 1253v191h1001v-191h-395v-1253h-211v1253h-395z" />
<glyph unicode="U" horiz-adv-x="1425" vert-adv-y="1433" d="M164 524v920h211v-932q0 -352 338 -352t338 352v932h211v-920q0 -561 -551 -561q-225 0 -356 97q-191 139 -191 464z" />
<glyph unicode="V" horiz-adv-x="1239" vert-adv-y="1433" d="M0 1444h219l404 -1215l407 1215h209l-502 -1444h-237z" />
<glyph unicode="W" horiz-adv-x="1737" vert-adv-y="1433" d="M0 1444h219l270 -1198l273 1198h221l270 -1198l275 1198h209l-369 -1444h-238l-262 1081l-264 -1081h-237z" />
<glyph unicode="X" vert-adv-y="1433" d="M0 0l477 752l-426 692h240l309 -510l315 510h224l-426 -678l475 -766h-248l-350 582l-359 -582h-231z" />
<glyph unicode="Y" horiz-adv-x="1219" vert-adv-y="1433" d="M0 1444h233l381 -721l381 721h224l-504 -932v-512h-211v512z" />
<glyph unicode="Z" horiz-adv-x="1141" vert-adv-y="1433" d="M45 0v170l743 1083h-698v191h954v-170l-743 -1084h762v-190h-1018z" />
<glyph unicode="[" horiz-adv-x="598" vert-adv-y="1433" d="M190 -256v1812h357v-163h-185v-1485h185v-164h-357z" />
<glyph unicode="\" horiz-adv-x="674" vert-adv-y="1433" d="M80 1556h176l358 -1812h-176z" />
<glyph unicode="]" horiz-adv-x="598" vert-adv-y="1433" d="M51 -92h185v1485h-185v163h357v-1812h-357v164z" />
<glyph unicode="^" horiz-adv-x="1073" vert-adv-y="1433" d="M123 367l315 753h197l315 -753h-164l-254 628l-253 -628h-156z" />
<glyph unicode="_" horiz-adv-x="1024" vert-adv-y="1433" d="M0 -217h1024v-137h-1024v137z" />
<glyph unicode="`" horiz-adv-x="1024" vert-adv-y="1433" d="M257 1520h223l175 -283h-168z" />
<glyph unicode="a" horiz-adv-x="1110" vert-adv-y="1433" d="M61 333q0 175 115 268t317 93q132 0 281 -39v68q0 87 -45 135q-67 72 -251 72t-328 -68v168q152 66 357 66q462 0 462 -365v-731h-156l-37 96q-146 -112 -320.5 -112t-284.5 87t-110 262zM260 336q0 -93 60.5 -143t163 -50t179.5 40t111 81v232q-129 41 -238 41 q-276 0 -276 -201z" />
<glyph unicode="b" horiz-adv-x="1202" vert-adv-y="1433" d="M141 0v1556h197v-595q128 135 318 135q143 0 252 -81q204 -152 204 -485q0 -254 -129.5 -407.5t-327.5 -153.5t-321 142l-37 -111h-156zM338 324q28 -72 101 -125.5t191.5 -53.5t196.5 100t78 298t-99 298q-76 77 -199 77q-181 0 -269 -187v-407z" />
<glyph unicode="c" horiz-adv-x="967" vert-adv-y="1433" d="M69 518.5q0 256.5 149 414t423 157.5q119 0 235 -31v-176q-120 28 -225 28q-183 0 -279 -100t-96 -283t101.5 -277.5t290.5 -94.5q119 0 224 20v-184q-121 -17 -235 -17q-254 0 -411 135q-177 152 -177 408.5z" />
<glyph unicode="d" horiz-adv-x="1202" vert-adv-y="1433" d="M90 522.5q0 272.5 129.5 423t323.5 150.5t321 -135v595h197v-1556h-156l-37 111q-126 -142 -312 -142t-309 123q-157 158 -157 430.5zM297 534.5q0 -177.5 74 -283.5t209 -106q100 0 175.5 49t108.5 130v407q-91 187 -275 187q-139 0 -215.5 -103t-76.5 -280.5z" />
<glyph unicode="e" horiz-adv-x="1133" vert-adv-y="1433" d="M90 544q0 254 131.5 403t357.5 149q164 0 280 -84q190 -137 190 -449q0 -54 -2 -98h-750q31 -322 422 -322q136 0 252 27v-174q-113 -27 -271 -27q-268 0 -419 118q-191 148 -191 457zM299 627h537q-7 129 -54 198q-71 103 -210 103q-234 0 -273 -301z" />
<glyph unicode="f" horiz-adv-x="643" vert-adv-y="1433" d="M23 901v115l167 49v147q0 180 96 277.5t278 97.5q105 0 184 -14v-152q-111 11 -163 11q-92 0 -145 -55t-53 -152v-160h246v-164h-246v-901h-197v901h-167z" />
<glyph unicode="g" horiz-adv-x="1165" vert-adv-y="1433" d="M90 597.5q0 240.5 129 369.5t347 129q100 0 192 -31h346v-154h-156q96 -125 96 -298q0 -300 -227 -406q82 -25 138 -75q102 -91 102 -232q0 -177 -161 -268q-126 -72 -338 -72t-357 44q-57 17 -64 19v197q198 -88 388.5 -88t257.5 51t67 138q0 111 -121 163 q-45 19 -168 41q-216 37 -311 110q-160 122 -160 362.5zM289 613.5q0 -149.5 71.5 -238t202.5 -88.5t207 84t76 249t-91 251q-72 67 -197.5 67t-197 -87.5t-71.5 -237z" />
<glyph unicode="h" horiz-adv-x="1190" vert-adv-y="1433" d="M141 0v1556h197v-598q70 62 148 100t200 38q192 0 289 -121q74 -93 74 -246v-729h-199v676q0 132 -51 190t-171 58t-217 -87q-31 -28 -73 -81v-756h-197z" />
<glyph unicode="i" horiz-adv-x="500" vert-adv-y="1433" d="M131 1362.5q0 56.5 36.5 87.5t89 31t82.5 -38t30 -89.5t-38 -81t-83.5 -29.5t-81 31.5t-35.5 88zM152 0v1065h196v-1065h-196z" />
<glyph unicode="j" horiz-adv-x="500" vert-adv-y="1433" d="M-180 -264q68 -10 126 -10q108 0 157 50t49 185v1104h196v-1102q0 -207 -102 -305t-269 -98q-86 0 -157 12v164zM131 1363q0 57 36.5 87.5t89 30.5t82.5 -38t30 -89.5t-38 -81t-83.5 -29.5t-81 31.5t-35.5 88.5z" />
<glyph unicode="k" horiz-adv-x="1092" vert-adv-y="1433" d="M141 0v1556h197v-907l467 416h252l-508 -457l559 -608h-258l-512 557v-557h-197z" />
<glyph unicode="l" horiz-adv-x="479" vert-adv-y="1433" d="M141 0v1556h197v-1556h-197z" />
<glyph unicode="m" horiz-adv-x="1827" vert-adv-y="1433" d="M141 0v1065h156l37 -111q131 142 337 142q145 0 228 -70q42 -35 74 -94q34 39 70 69q115 95 296.5 95t271.5 -113q75 -92 75 -248v-735h-197v686q0 130 -47.5 184t-160 54t-202.5 -91q-23 -22 -67 -81v-752h-197v686q0 131 -47.5 184.5t-159.5 53.5t-203 -90 q-22 -23 -67 -82v-752h-197z" />
<glyph unicode="n" horiz-adv-x="1190" vert-adv-y="1433" d="M141 0v1065h156l37 -111q67 63 147 102.5t205 39.5q192 0 289 -121q74 -93 74 -246v-729h-199v676q0 132 -51 190t-171 58t-217 -87q-31 -28 -73 -81v-756h-197z" />
<glyph unicode="o" horiz-adv-x="1192" vert-adv-y="1433" d="M90 520.5q0 274.5 137.5 425t369 150.5t368.5 -150.5t137 -411.5t-137 -413t-357 -152t-353 123q-165 154 -165 428.5zM297 533.5q0 -179.5 77 -284t217.5 -104.5t222 99t81.5 298.5t-101 301.5q-76 76 -209.5 76t-210.5 -103.5t-77 -283z" />
<glyph unicode="p" horiz-adv-x="1202" vert-adv-y="1433" d="M141 -410v1475h156l37 -111q128 142 325.5 142t325 -150.5t127.5 -410t-129.5 -413t-325.5 -153.5t-319 119v-498h-197zM338 324q28 -72 101 -125.5t191.5 -53.5t196.5 100t78 298t-99 298q-76 77 -199 77q-181 0 -269 -187v-407z" />
<glyph unicode="q" horiz-adv-x="1202" vert-adv-y="1433" d="M90 536q0 259 127.5 409.5t324.5 150.5t326 -142l37 111h156v-1475h-197v498q-127 -119 -321 -119t-323.5 154t-129.5 413zM297 534.5q0 -177.5 74 -283.5t209 -106q100 0 175.5 49t108.5 130v407q-91 187 -275 187q-139 0 -215.5 -103t-76.5 -280.5z" />
<glyph unicode="r" horiz-adv-x="721" vert-adv-y="1433" d="M141 0v1065h156l37 -166q43 70 132 122t189 52h26q12 0 24 -2v-190q-12 2 -22 2h-24q-195 0 -321 -205v-678h-197z" />
<glyph unicode="s" horiz-adv-x="866" vert-adv-y="1433" d="M51 788q0 110 80 191q116 117 342 117q171 0 289 -33v-166q-123 33 -265 33t-204 -50q-41 -33 -41 -86.5t41 -82.5t129 -60l86 -30q164 -57 224 -117q83 -82 83 -207q0 -159 -121.5 -243.5t-322.5 -84.5q-118 0 -299 33v182q135 -43 284 -43t209 52q41 36 41 84.5 t-19 76.5q-33 50 -145 90l-86 31q-113 39 -174 76q-131 80 -131 237z" />
<glyph unicode="t" horiz-adv-x="698" vert-adv-y="1433" d="M23 901v115l167 49v313h197v-313h291v-164h-291v-594q0 -105 40 -142.5t131.5 -37.5t139.5 12v-155q-58 -15 -172.5 -15t-183.5 35q-152 76 -152 313v584h-167z" />
<glyph unicode="u" horiz-adv-x="1190" vert-adv-y="1433" d="M141 336v729h199v-676q0 -115 38 -173q49 -75 169.5 -75t208.5 71q47 37 96 97v756h197v-1065h-156l-37 111q-65 -62 -145 -102t-220.5 -40t-233.5 79q-116 98 -116 288z" />
<glyph unicode="v" horiz-adv-x="1022" vert-adv-y="1433" d="M0 1065h203l315 -846l313 846h191l-416 -1079h-190z" />
<glyph unicode="w" horiz-adv-x="1597" vert-adv-y="1433" d="M0 1065h203l254 -850l252 850h192l254 -850l252 850h190l-350 -1079h-198l-250 809l-250 -809h-199z" />
<glyph unicode="x" horiz-adv-x="1042" vert-adv-y="1433" d="M0 0l410 545l-383 520h227l270 -375l275 375h217l-381 -514l407 -551h-233l-291 406l-295 -406h-223z" />
<glyph unicode="y" horiz-adv-x="1032" vert-adv-y="1433" d="M0 1065h203l311 -766l328 766h190l-624 -1475h-197l201 467z" />
<glyph unicode="z" horiz-adv-x="987" vert-adv-y="1433" d="M37 0v150l643 751h-612v164h854v-150l-643 -751h667v-164h-909z" />
<glyph unicode="{" horiz-adv-x="612" vert-adv-y="1433" d="M51 487v172q81 2 116.5 44.5t35.5 150.5v436q0 153 88 220q61 46 160 46h110v-163h-43q-78 0 -104.5 -41.5t-26.5 -139.5v-432q0 -140 -145 -207q145 -69 145 -206v-433q0 -111 31.5 -145.5t99.5 -34.5h43v-164h-110q-109 0 -178.5 63t-69.5 204v436q0 131 -58 169 q-35 23 -94 25z" />
<glyph unicode="|" horiz-adv-x="575" vert-adv-y="1433" d="M195 -410v1966h186v-1966h-186z" />
<glyph unicode="}" horiz-adv-x="612" vert-adv-y="1433" d="M51 -246h43q83 0 107 45t24 135v433q0 139 146 206q-146 68 -146 207v432q0 113 -31.5 147t-99.5 34h-43v163h111q127 0 187.5 -71.5t60.5 -194.5v-440q0 -113 37.5 -150.5t113.5 -40.5v-172q-79 -3 -115 -43t-36 -147v-440q0 -154 -91 -221q-61 -46 -157 -46h-111v164z " />
<glyph unicode="~" horiz-adv-x="1233" vert-adv-y="1433" d="M113 569q3 173 45 246.5t88.5 100t110 26.5t111.5 -19t118 -67l145 -100q84 -58 135 -58q62 0 86 82q13 46 17 133h151q-9 -372 -247 -372q-60 0 -104.5 16t-121.5 70l-145 100q-83 57 -135 57q-98 0 -103 -215h-151z" />
<glyph unicode="&#xa0;" horiz-adv-x="512" vert-adv-y="1433" />
<glyph unicode="&#xa1;" horiz-adv-x="637" vert-adv-y="1433" d="M178 946q0 70 42 105t102 35t99.5 -39t39.5 -102.5t-39.5 -102.5t-99.5 -39t-102 36.5t-42 106.5zM182 -255q0 30 11 177l47 619h159l47 -619q11 -146 11 -175q0 -89 -43 -131t-97 -42t-94.5 43t-40.5 128z" />
<glyph unicode="&#xa2;" horiz-adv-x="967" vert-adv-y="1433" d="M76 707q0 182 88 320q115 180 352 224v187h132v-176q131 -3 235 -31v-176q-117 27 -235 28v-755q150 1 251 20v-184q-121 -17 -237 -17h-14v-178h-132v191q-191 37 -305 163q-135 150 -135 384zM283 706q0 -285 233 -360v719q-75 -23 -126 -71q-107 -100 -107 -288z" />
<glyph unicode="&#xa3;" horiz-adv-x="1163" vert-adv-y="1433" d="M133 0v160q101 46 152 174q33 83 57 287h-170v114l190 49l23 185q29 232 135 350.5t315 118.5q83 0 189 -21v-172q-87 21 -164 21q-152 0 -220 -109q-44 -69 -62 -219l-19 -154h303v-163h-324v-23q0 -47 -33.5 -171.5t-137.5 -250.5h684v-176h-918z" />
<glyph unicode="&#xa4;" vert-adv-y="1433" d="M129 334l125 129q-72 104 -72 244t76 243l-127 137l119 109l129 -139q97 53 213 53t215 -53l129 139l121 -109l-129 -137q76 -103 76 -242t-72 -243l125 -131l-121 -111l-123 133q-98 -57 -219.5 -57t-220.5 55l-125 -131zM340 704.5q0 -115.5 69.5 -193t180.5 -77.5 t181.5 75.5t70.5 201t-76 195t-181.5 69.5t-175 -77.5t-69.5 -193z" />
<glyph unicode="&#xa5;" horiz-adv-x="1290" vert-adv-y="1433" d="M72 1409h223l354 -633l357 633h213l-388 -645h170v-140h-256v-167h256v-140h-256v-317h-200v317h-256v93l170 47h86v167h-256v93l170 47z" />
<glyph unicode="&#xa6;" horiz-adv-x="575" vert-adv-y="1433" d="M201 289h174v-699h-174v699zM201 858v698h174v-698h-174z" />
<glyph unicode="&#xa7;" horiz-adv-x="1167" vert-adv-y="1433" d="M123 586q0 198 196 295q-186 91 -186 279q0 321 450 321q140 0 351 -43v-162q-210 43 -350.5 43t-201 -36t-60.5 -109.5t52.5 -113t172.5 -81.5l231 -80q157 -54 211.5 -125t54.5 -169q0 -177 -194 -281q194 -82 194 -288q0 -106 -63 -186q-110 -137 -399 -137 q-175 0 -379 47v174q200 -57 378 -57q269 0 269 148q0 64 -46.5 103.5t-146.5 74.5l-266 92q-268 93 -268 291zM297 638q0 -121 123 -163l262 -90q71 18 125.5 66.5t54.5 115.5t-38.5 104t-112.5 62l-242 82q-70 -13 -121 -61t-51 -116z" />
<glyph unicode="&#xa8;" horiz-adv-x="1024" vert-adv-y="1433" d="M188 1380q0 57 36.5 87.5t89 30.5t82.5 -38t30 -89.5t-38 -81t-83.5 -29.5t-81 31.5t-35.5 88.5zM598 1379.5q0 56.5 36 87.5t89 31t83 -38t30 -89.5t-38 -81t-83.5 -29.5t-81 31.5t-35.5 88z" />
<glyph unicode="&#xa9;" horiz-adv-x="1729" vert-adv-y="1433" d="M106 720q0 237 128 424t335 277q138 60 297 60q208 0 396.5 -116t282.5 -313q76 -157 76 -346.5t-102 -364t-276.5 -276.5t-378.5 -102q-292 0 -508 195q-118 107 -184 253t-66 309zM276 721q0 -251 173 -430q80 -83 188.5 -130.5t224.5 -47.5q233 0 411 172.5t178 438.5 q0 158 -79 301t-215.5 224.5t-292.5 81.5q-244 0 -416 -179.5t-172 -430.5zM483 715q0 207 117.5 317.5t321.5 110.5q101 0 189 -21v-131q-75 19 -175 19q-151 0 -225.5 -75.5t-74.5 -209.5t82 -207.5t229 -73.5q90 0 171 11v-131q-70 -15 -181 -15q-186 0 -302 86 q-152 113 -152 320z" />
<glyph unicode="&#xaa;" horiz-adv-x="979" vert-adv-y="1433" d="M84 847q0 143 93 220.5t255 77.5q110 0 223 -33v51q0 89 -55.5 125.5t-187.5 36.5t-256 -55v143q125 53 289 53q374 0 374 -295v-593h-129l-33 77q-114 -92 -255.5 -92t-229.5 70.5t-88 213.5zM250 848q0 -73 46.5 -111.5t129.5 -38.5t142.5 32t86.5 67v180 q-89 33 -187 33q-218 0 -218 -162z" />
<glyph unicode="&#xab;" horiz-adv-x="1163" vert-adv-y="1433" d="M123 532l250 410h194l-248 -410l248 -409h-194zM596 532l250 410h194l-247 -410l247 -409h-194z" />
<glyph unicode="&#xac;" vert-adv-y="1433" d="M82 887v164h1005v-699h-174v535h-831z" />
<glyph unicode="&#xad;" horiz-adv-x="803" vert-adv-y="1433" d="M82 532v205h639v-205h-639z" />
<glyph unicode="&#xae;" horiz-adv-x="1729" vert-adv-y="1433" d="M106 720q0 237 128 424t335 277q138 60 298 60q208 0 396.5 -116t282.5 -313q76 -157 76 -347t-102 -364.5t-276.5 -276t-379.5 -101.5q-292 0 -508 195q-118 107 -184 253t-66 309zM276 721.5q0 -251.5 173 -430t409.5 -178.5t415 172.5t178.5 438.5q0 158 -79 301 t-216 224.5t-293 81.5q-242 0 -415 -179t-173 -430.5zM563 336v805h336q260 0 260 -253q0 -149 -125 -210l189 -342h-174l-156 299h-186v-299h-144zM707 762h153q141 0 141 131q0 121 -135 121h-159v-252z" />
<glyph unicode="&#xaf;" horiz-adv-x="928" vert-adv-y="1433" d="M113 1255v154h714v-154h-714z" />
<glyph unicode="&#xb0;" horiz-adv-x="889" vert-adv-y="1433" d="M133 1278q0 146 114 240q83 69 186 69t179.5 -49.5t110 -121t33.5 -143.5q0 -126 -91.5 -217t-213.5 -91t-220 83.5t-98 229.5zM266 1271q0 -71 52 -127.5t124 -56.5t126.5 53t54.5 138t-57.5 135.5t-132.5 50.5t-121 -61t-46 -132z" />
<glyph unicode="&#xb1;" vert-adv-y="1433" d="M92 0v164h416v457h-416v163h416v459h174v-459h416v-163h-416v-457h416v-164h-1006z" />
<glyph unicode="&#xb2;" horiz-adv-x="1147" vert-adv-y="1433" d="M219 518v115q209 145 346 288q69 73 93 125.5t24 102.5q0 77 -69 113q-46 24 -138.5 24t-214.5 -55v147q109 49 256.5 49t244.5 -67t97 -203.5t-110 -264.5q-78 -90 -259 -235h390v-139h-660z" />
<glyph unicode="&#xb3;" horiz-adv-x="1147" vert-adv-y="1433" d="M233 520v144q115 -27 232 -27q256 0 256 160q0 71 -59 105t-159 34t-149 -10v118l295 224h-407v137h618v-125l-285 -225q143 -2 232.5 -64t89.5 -203.5t-112 -216.5t-281 -75h-20q-132 0 -251 24z" />
<glyph unicode="&#xb4;" horiz-adv-x="1024" vert-adv-y="1433" d="M394 1237l174 283h224l-230 -283h-168z" />
<glyph unicode="&#xb5;" horiz-adv-x="1190" vert-adv-y="1433" d="M141 -410v1475h199v-696q0 -128 51.5 -178t171.5 -50t215 85q32 29 74 83v756h197v-1065h-156l-37 111q-140 -142 -314 -142q-140 0 -202 78v-457h-199z" />
<glyph unicode="&#xb6;" horiz-adv-x="1206" vert-adv-y="1433" d="M82 1026q0 200 106 301q122 117 392 117h436v-1700h-164v1571h-188v-1571h-164v860q-418 52 -418 422z" />
<glyph unicode="&#xb7;" horiz-adv-x="541" vert-adv-y="1433" d="M129 702.5q0 72.5 43 108t105 35.5t98.5 -43.5t36.5 -107t-43.5 -98t-96.5 -34.5t-98 33.5t-45 106z" />
<glyph unicode="&#xb8;" horiz-adv-x="1024" vert-adv-y="1433" d="M345 -227q57 -25 101 -25q132 0 132 107q0 93 -110 145h160q108 -69 108 -176q0 -205 -256 -205q-74 0 -135 27v127z" />
<glyph unicode="&#xb9;" horiz-adv-x="1147" vert-adv-y="1433" d="M287 1186v125l243 96h148v-891h-170v723z" />
<glyph unicode="&#xba;" horiz-adv-x="1049" vert-adv-y="1433" d="M115 1000.5q0 224.5 110 345.5q111 120 299 120t299 -121t111 -333.5t-110.5 -334.5t-290 -122t-285.5 99q-133 122 -133 346.5zM291 1006q0 -135 60.5 -217t169.5 -82t173 77t64 235t-80 238q-59 60 -168.5 60t-171.5 -100q-47 -76 -47 -211z" />
<glyph unicode="&#xbb;" horiz-adv-x="1163" vert-adv-y="1433" d="M123 123l248 409l-248 410h194l250 -410l-250 -409h-194zM596 123l248 409l-248 410h195l249 -410l-249 -409h-195z" />
<glyph unicode="&#xbc;" horiz-adv-x="2277" vert-adv-y="1433" d="M184 1186v125l244 96h147v-891h-169v723zM610 0l736 1407h174l-736 -1407h-174zM1294 188v152l451 551h166v-576h106v-127h-106v-188h-162v188h-455zM1442 315h307v379z" />
<glyph unicode="&#xbd;" horiz-adv-x="2277" vert-adv-y="1433" d="M184 1186v125l244 96h147v-891h-169v723zM610 0l736 1407h174l-736 -1407h-174zM1358 0v115q269 189 389 336q74 91 74 173q0 144 -192 144q-109 0 -230 -55v147q111 49 258 49t244.5 -67.5t97.5 -204.5t-101 -251.5t-270 -246.5h389v-139h-659z" />
<glyph unicode="&#xbe;" horiz-adv-x="2277" vert-adv-y="1433" d="M172 520v144q115 -27 233 -27q254 0 254 160q0 71 -58.5 105t-158.5 34t-149 -10v118l295 224h-408v137h619v-125l-285 -225q143 -2 232.5 -64t89.5 -203.5t-113 -216.5t-281 -75h-20q-131 0 -250 24zM692 0l735 1407h175l-736 -1407h-174zM1376 188v152l451 551h166 v-576h106v-127h-106v-188h-162v188h-455zM1524 315h307v379z" />
<glyph unicode="&#xbf;" horiz-adv-x="889" vert-adv-y="1433" d="M90 -98.5q0 129.5 78 236.5q32 45 97 109t101.5 125.5t36.5 151.5v17h191v-39q0 -140 -70 -239q-34 -48 -100.5 -111.5t-96.5 -113t-30 -124t66 -120.5t195.5 -46t279.5 59v-180q-153 -53 -316 -53q-224 0 -338 108q-94 90 -94 219.5zM358 938.5q0 69.5 39 108.5 q41 39 103.5 39t101.5 -39t39 -102.5t-39 -102.5t-96 -39t-93 26q-55 40 -55 109.5z" />
<glyph unicode="&#xc0;" horiz-adv-x="1272" vert-adv-y="1433" d="M0 0l518 1444h238l516 -1444h-219l-131 387h-580l-133 -387h-209zM329 1889h223l175 -283h-168zM406 573h452l-225 662z" />
<glyph unicode="&#xc1;" horiz-adv-x="1272" vert-adv-y="1433" d="M0 0l518 1444h238l516 -1444h-219l-131 387h-580l-133 -387h-209zM406 573h452l-225 662zM557 1606l174 283h224l-230 -283h-168z" />
<glyph unicode="&#xc2;" horiz-adv-x="1272" vert-adv-y="1433" d="M0 0l518 1444h238l516 -1444h-219l-131 387h-580l-133 -387h-209zM293 1606l236 283h194l232 -283h-185l-147 178l-148 -178h-182zM406 573h452l-225 662z" />
<glyph unicode="&#xc3;" horiz-adv-x="1272" vert-adv-y="1433" d="M0 0l518 1444h238l516 -1444h-219l-131 387h-580l-133 -387h-209zM278 1633q34 232 210 232q82 0 196 -76q62 -41 101 -41q61 0 83 100h127q-14 -106 -51 -157q-54 -74 -148.5 -74t-250.5 98q-29 19 -67 19t-57 -44q-7 -17 -16 -57h-127zM406 573h452l-225 662z" />
<glyph unicode="&#xc4;" horiz-adv-x="1272" vert-adv-y="1433" d="M0 0l518 1444h238l516 -1444h-219l-131 387h-580l-133 -387h-209zM311 1746q0 57 36.5 87.5t89 30.5t82.5 -38t30 -89.5t-37.5 -81t-83.5 -29.5t-81.5 31.5t-35.5 88.5zM406 573h452l-225 662zM721 1745.5q0 56.5 36 87.5t89 31t83 -38t30 -89.5t-37.5 -81t-83.5 -29.5 t-81.5 31.5t-35.5 88z" />
<glyph unicode="&#xc5;" horiz-adv-x="1272" vert-adv-y="1433" d="M0 0l512 1427q-143 63 -143 223q0 126 91 196q69 52 191 52t196 -88q54 -64 54 -162q0 -153 -139 -220l510 -1428h-219l-131 387h-580l-133 -387h-209zM406 573h452l-225 662zM489 1644q0 -69 60 -107q35 -23 86.5 -23t98 34.5t46.5 104.5t-55 108q-37 26 -92 26 t-99.5 -37t-44.5 -106z" />
<glyph unicode="&#xc6;" horiz-adv-x="1956" vert-adv-y="1433" d="M0 0l825 1444h975v-191h-557v-422h535v-190h-535v-451h578v-190h-789v383h-596l-217 -383h-219zM543 569h489v684h-102z" />
<glyph unicode="&#xc7;" horiz-adv-x="1147" vert-adv-y="1433" d="M85 725.5q0 346.5 190 544.5t522 198q141 0 276 -26v-189q-121 29 -259 29q-250 0 -377.5 -150.5t-127.5 -412t140 -409.5t388 -148q153 0 248 26v-190q-87 -18 -270 -23q75 -71 75 -165t-71.5 -142.5t-177.5 -48.5t-197 27v127q90 -25 153 -25q136 0 136 108 q0 71 -88 132q-231 43 -371 191q-189 200 -189 546.5z" />
<glyph unicode="&#xc8;" horiz-adv-x="1114" vert-adv-y="1433" d="M190 0v1444h768v-191h-557v-422h535v-190h-535v-451h578v-190h-789zM311 1889h223l175 -283h-168z" />
<glyph unicode="&#xc9;" horiz-adv-x="1114" vert-adv-y="1433" d="M190 0v1444h768v-191h-557v-422h535v-190h-535v-451h578v-190h-789zM457 1606l174 283h224l-230 -283h-168z" />
<glyph unicode="&#xca;" horiz-adv-x="1114" vert-adv-y="1433" d="M190 0v1444h768v-191h-557v-422h535v-190h-535v-451h578v-190h-789zM242 1606l236 283h194l232 -283h-185l-147 178l-148 -178h-182z" />
<glyph unicode="&#xcb;" horiz-adv-x="1114" vert-adv-y="1433" d="M190 0v1444h768v-191h-557v-422h535v-190h-535v-451h578v-190h-789zM260 1746q0 57 36.5 87.5t89 30.5t82.5 -38t30 -89.5t-37.5 -81t-83.5 -29.5t-81.5 31.5t-35.5 88.5zM670 1745.5q0 56.5 36 87.5t89 31t83 -38t30 -89.5t-37.5 -81t-83.5 -29.5t-81.5 31.5t-35.5 88z " />
<glyph unicode="&#xcc;" horiz-adv-x="592" vert-adv-y="1433" d="M-11 1889h223l175 -283h-168zM191 0v1444h211v-1444h-211z" />
<glyph unicode="&#xcd;" horiz-adv-x="592" vert-adv-y="1433" d="M190 0v1444h211v-1444h-211zM192 1606l174 283h224l-230 -283h-168z" />
<glyph unicode="&#xce;" horiz-adv-x="592" vert-adv-y="1433" d="M-35 1606l236 283h194l232 -283h-185l-147 178l-148 -178h-182zM191 0v1444h211v-1444h-211z" />
<glyph unicode="&#xcf;" horiz-adv-x="592" vert-adv-y="1433" d="M1 1746q0 57 36.5 87.5t89 30.5t82.5 -38t30 -89.5t-37.5 -81t-83.5 -29.5t-81.5 31.5t-35.5 88.5zM190 0v1444h211v-1444h-211zM356 1745.5q0 56.5 36 87.5t89 31t83 -38t30 -89.5t-37.5 -81t-83.5 -29.5t-81.5 31.5t-35.5 88z" />
<glyph unicode="&#xd0;" horiz-adv-x="1409" vert-adv-y="1433" d="M0 662v153h190v629h449q314 0 489 -186.5t175 -535.5t-175 -535.5t-489 -186.5h-449v662h-190zM401 190h242q188 0 299 115q137 139 137 418t-139 420q-54 55 -136 82.5t-161 27.5h-242v-438h314v-153h-314v-472z" />
<glyph unicode="&#xd1;" horiz-adv-x="1438" vert-adv-y="1433" d="M190 0v1444h244l606 -1120v1120h207v-1444h-231l-619 1133v-1133h-207zM364 1633q34 232 210 232q82 0 196 -76q62 -41 101 -41q61 0 83 100h127q-14 -106 -51 -157q-54 -74 -148.5 -74t-250.5 98q-29 19 -67 19t-57 -44q-7 -17 -16 -57h-127z" />
<glyph unicode="&#xd2;" horiz-adv-x="1516" vert-adv-y="1433" d="M106 704.5q0 370.5 176 573.5t474.5 203t475.5 -203.5t177 -555t-177 -555.5t-478 -204q-266 0 -436 165q-212 206 -212 576.5zM330 722.5q0 -262.5 110 -420t306.5 -157.5t318 143t121.5 440.5t-142 451.5q-55 60 -134.5 89t-157.5 29q-202 0 -312 -156.5t-110 -419z M472 1889h223l175 -283h-168z" />
<glyph unicode="&#xd3;" horiz-adv-x="1516" vert-adv-y="1433" d="M106 704.5q0 370.5 176 573.5t474.5 203t475.5 -203.5t177 -555t-177 -555.5t-478 -204q-266 0 -436 165q-212 206 -212 576.5zM330 722.5q0 -262.5 110 -420t306.5 -157.5t318 143t121.5 440.5t-142 451.5q-55 60 -134.5 89t-157.5 29q-202 0 -312 -156.5t-110 -419z M624 1606l174 283h224l-230 -283h-168z" />
<glyph unicode="&#xd4;" horiz-adv-x="1516" vert-adv-y="1433" d="M106 704.5q0 370.5 176 573.5t474.5 203t475.5 -203.5t177 -555t-177 -555.5t-478 -204q-266 0 -436 165q-212 206 -212 576.5zM330 722.5q0 -262.5 110 -420t306.5 -157.5t318 143t121.5 440.5t-142 451.5q-55 60 -134.5 89t-157.5 29q-202 0 -312 -156.5t-110 -419z M415 1606l236 283h194l232 -283h-185l-147 178l-148 -178h-182z" />
<glyph unicode="&#xd5;" horiz-adv-x="1516" vert-adv-y="1433" d="M106 704.5q0 370.5 176 573.5t474.5 203t475.5 -203.5t177 -555t-177 -555.5t-478 -204q-266 0 -436 165q-212 206 -212 576.5zM330 722.5q0 -262.5 110 -420t306.5 -157.5t318 143t121.5 440.5t-142 451.5q-55 60 -134.5 89t-157.5 29q-202 0 -312 -156.5t-110 -419z M394 1633q34 232 210 232q82 0 196 -76q62 -41 101 -41q61 0 83 100h127q-14 -106 -51 -157q-54 -74 -148.5 -74t-250.5 98q-29 19 -67 19t-57 -44q-7 -17 -16 -57h-127z" />
<glyph unicode="&#xd6;" horiz-adv-x="1516" vert-adv-y="1433" d="M106 704.5q0 370.5 176 573.5t474.5 203t475.5 -203.5t177 -555t-177 -555.5t-478 -204q-266 0 -436 165q-212 206 -212 576.5zM330 722.5q0 -262.5 110 -420t306.5 -157.5t318 143t121.5 440.5t-142 451.5q-55 60 -134.5 89t-157.5 29q-202 0 -312 -156.5t-110 -419z M430 1746q0 57 36.5 87.5t89 30.5t82.5 -38t30 -89.5t-37.5 -81t-83.5 -29.5t-81.5 31.5t-35.5 88.5zM840 1745.5q0 56.5 36 87.5t89 31t83 -38t30 -89.5t-37.5 -81t-83.5 -29.5t-81.5 31.5t-35.5 88z" />
<glyph unicode="&#xd7;" vert-adv-y="1433" d="M156 375l325 327l-325 328l110 111l328 -326l328 326l110 -111l-325 -328l325 -327l-110 -111l-328 326l-328 -326z" />
<glyph unicode="&#xd8;" horiz-adv-x="1516" vert-adv-y="1433" d="M106 716q0 359 176 562t474 203q188 0 334 -86l110 174l131 -78l-121 -191q199 -211 199 -570t-177 -563t-475 -204q-189 0 -339 88l-111 -176l-131 78l125 194q-195 210 -195 569zM330 739q0 -246 88 -405l567 897q-98 67 -228 67q-207 0 -317 -156.5t-110 -402.5z M524 217q100 -72 234 -72q185 0 306.5 143t121.5 435q0 238 -92 391z" />
<glyph unicode="&#xd9;" horiz-adv-x="1425" vert-adv-y="1433" d="M164 524v920h211v-932q0 -352 338 -352t338 352v932h211v-920q0 -561 -551 -561q-225 0 -356 97q-191 139 -191 464zM430 1889h223l175 -283h-168z" />
<glyph unicode="&#xda;" horiz-adv-x="1425" vert-adv-y="1433" d="M164 524v920h211v-932q0 -352 338 -352t338 352v932h211v-920q0 -561 -551 -561q-225 0 -356 97q-191 139 -191 464zM592 1606l174 283h224l-230 -283h-168z" />
<glyph unicode="&#xdb;" horiz-adv-x="1425" vert-adv-y="1433" d="M164 524v920h211v-932q0 -352 338 -352t338 352v932h211v-920q0 -561 -551 -561q-225 0 -356 97q-191 139 -191 464zM382 1606l236 283h194l232 -283h-185l-147 178l-148 -178h-182z" />
<glyph unicode="&#xdc;" horiz-adv-x="1425" vert-adv-y="1433" d="M164 524v920h211v-932q0 -352 338 -352t338 352v932h211v-920q0 -561 -551 -561q-225 0 -356 97q-191 139 -191 464zM388 1746q0 57 36.5 87.5t89 30.5t82.5 -38t30 -89.5t-37.5 -81t-83.5 -29.5t-81.5 31.5t-35.5 88.5zM798 1745.5q0 56.5 36 87.5t89 31t83 -38 t30 -89.5t-37.5 -81t-83.5 -29.5t-81.5 31.5t-35.5 88z" />
<glyph unicode="&#xdd;" horiz-adv-x="1219" vert-adv-y="1433" d="M0 1444h233l381 -721l381 721h224l-504 -932v-512h-211v512zM500 1606l174 283h224l-230 -283h-168z" />
<glyph unicode="&#xde;" horiz-adv-x="1171" vert-adv-y="1433" d="M190 0v1444h207v-260h199q247 0 367 -122t120 -332.5t-120 -333t-367 -122.5h-199v-274h-207zM397 459h191q272 0 272 275q0 134 -72 199.5t-200 65.5h-191v-540z" />
<glyph unicode="&#xdf;" horiz-adv-x="1278" vert-adv-y="1433" d="M23 901v115l167 51v78q0 217 131.5 329.5t346.5 112.5t334.5 -110t119.5 -276q0 -248 -235 -355q289 -81 289 -406q0 -207 -132.5 -331.5t-338.5 -124.5h-14q-87 0 -148 12v164q52 -8 113 -8q155 0 234 81.5t79 235.5t-124 229q-93 56 -245 56h-53v164q373 1 373 271 q0 122 -74 179t-184 57q-275 0 -275 -307v-1118h-197v901h-167z" />
<glyph unicode="&#xe0;" horiz-adv-x="1110" vert-adv-y="1433" d="M61 333q0 175 115 268t317 93q132 0 281 -39v68q0 87 -45 135q-67 72 -251 72t-328 -68v168q152 66 357 66q462 0 462 -365v-731h-156l-37 96q-146 -112 -320.5 -112t-284.5 87t-110 262zM260 336q0 -93 60.5 -143t163 -50t179.5 40t111 81v232q-129 41 -238 41 q-276 0 -276 -201zM275 1520h223l175 -283h-168z" />
<glyph unicode="&#xe1;" horiz-adv-x="1110" vert-adv-y="1433" d="M61 333q0 175 115 268t317 93q132 0 281 -39v68q0 87 -45 135q-67 72 -251 72t-328 -68v168q152 66 357 66q462 0 462 -365v-731h-156l-37 96q-146 -112 -320.5 -112t-284.5 87t-110 262zM260 336q0 -93 60.5 -143t163 -50t179.5 40t111 81v232q-129 41 -238 41 q-276 0 -276 -201zM406 1237l174 283h224l-230 -283h-168z" />
<glyph unicode="&#xe2;" horiz-adv-x="1110" vert-adv-y="1433" d="M61 333q0 175 115 268t317 93q132 0 281 -39v68q0 87 -45 135q-67 72 -251 72t-328 -68v168q152 66 357 66q462 0 462 -365v-731h-156l-37 96q-146 -112 -320.5 -112t-284.5 87t-110 262zM208 1237l236 283h194l232 -283h-185l-147 178l-148 -178h-182zM260 336 q0 -93 60.5 -143t163 -50t179.5 40t111 81v232q-129 41 -238 41q-276 0 -276 -201z" />
<glyph unicode="&#xe3;" horiz-adv-x="1110" vert-adv-y="1433" d="M61 333q0 175 115 268t317 93q132 0 281 -39v68q0 87 -45 135q-67 72 -251 72t-328 -68v168q152 66 357 66q462 0 462 -365v-731h-156l-37 96q-146 -112 -320.5 -112t-284.5 87t-110 262zM176 1267q34 232 210 232q56 0 109 -27q72 -38 113 -64t78.5 -26t54 29t25.5 71 h127q-29 -231 -206 -231q-87 0 -244 98q-29 19 -67 19t-57 -44q-7 -17 -16 -57h-127zM260 336q0 -93 60.5 -143t163 -50t179.5 40t111 81v232q-129 41 -238 41q-276 0 -276 -201z" />
<glyph unicode="&#xe4;" horiz-adv-x="1110" vert-adv-y="1433" d="M61 333q0 175 115 268t317 93q132 0 281 -39v68q0 87 -45 135q-67 72 -251 72t-328 -68v168q152 66 357 66q462 0 462 -365v-731h-156l-37 96q-146 -112 -320.5 -112t-284.5 87t-110 262zM212 1380q0 57 36.5 87.5t89 30.5t82.5 -38t30 -89.5t-38 -81t-83.5 -29.5 t-81 31.5t-35.5 88.5zM260 336q0 -93 60.5 -143t163 -50t179.5 40t111 81v232q-129 41 -238 41q-276 0 -276 -201zM622 1379.5q0 56.5 36 87.5t89 31t83 -38t30 -89.5t-38 -81t-83.5 -29.5t-81 31.5t-35.5 88z" />
<glyph unicode="&#xe5;" horiz-adv-x="1110" vert-adv-y="1433" d="M61 333q0 175 115 268t317 93q132 0 281 -39v68q0 87 -45 135q-67 72 -251 72t-328 -68v168q152 66 357 66q462 0 462 -365v-731h-156l-37 96q-146 -112 -320.5 -112t-284.5 87t-110 262zM260 336q0 -93 60.5 -143t163 -50t179.5 40t111 81v232q-129 41 -238 41 q-276 0 -276 -201zM281 1453.5q0 130.5 91 204.5q68 55 190.5 55t196.5 -92q54 -68 54 -177t-73.5 -180.5t-186.5 -71.5t-192.5 65.5t-79.5 196zM401 1445.5q0 -75.5 60 -117.5q35 -25 86.5 -25t98 38t46.5 114.5t-46 111.5t-101.5 35t-99.5 -40.5t-44 -116z" />
<glyph unicode="&#xe6;" horiz-adv-x="1804" vert-adv-y="1433" d="M61 342q0 166 115 259t317 93q132 0 281 -39v43q0 116 -70 174t-240 58t-314 -68v168q152 66 346 66q303 0 405 -176q118 176 367 176q214 0 333 -145t119 -387q0 -67 -2 -99h-749q31 -322 421 -322q136 0 252 27v-174q-113 -27 -270 -27q-331 0 -481 176 q-99 -89 -198.5 -125t-257.5 -36t-266 96t-108 262zM260 336q0 -92 62 -139t172.5 -47t191 43t119.5 106q-27 70 -31 197q-129 41 -238 41q-276 0 -276 -201zM971 627h536q-15 301 -261 301t-275 -301z" />
<glyph unicode="&#xe7;" horiz-adv-x="967" vert-adv-y="1433" d="M69 536.5q0 240.5 150 397t423 156.5q115 0 234 -31v-176q-124 28 -229 28q-177 0 -274 -98.5t-97 -283.5t102 -279t290 -94q120 0 224 20v-184l-202 -17q75 -71 75 -164.5t-71.5 -142.5t-178 -49t-196.5 27v127q90 -25 153 -25q136 0 136 107q0 76 -86 131 q-197 34 -325 172t-128 378.5z" />
<glyph unicode="&#xe8;" horiz-adv-x="1133" vert-adv-y="1433" d="M90 544q0 254 131.5 403t357.5 149q164 0 280 -84q190 -137 190 -449q0 -54 -2 -98h-750q31 -322 422 -322q136 0 252 27v-174q-113 -27 -271 -27q-268 0 -419 118q-191 148 -191 457zM299 627h537q-7 129 -54 198q-71 103 -210 103q-234 0 -273 -301zM329 1520h223 l175 -283h-168z" />
<glyph unicode="&#xe9;" horiz-adv-x="1133" vert-adv-y="1433" d="M90 544q0 254 131.5 403t357.5 149q164 0 280 -84q190 -137 190 -449q0 -54 -2 -98h-750q31 -322 422 -322q136 0 252 27v-174q-113 -27 -271 -27q-268 0 -419 118q-191 148 -191 457zM299 627h537q-7 129 -54 198q-71 103 -210 103q-234 0 -273 -301zM463 1237l174 283 h224l-230 -283h-168z" />
<glyph unicode="&#xea;" horiz-adv-x="1133" vert-adv-y="1433" d="M90 544q0 254 131.5 403t357.5 149q164 0 280 -84q190 -137 190 -449q0 -54 -2 -98h-750q31 -322 422 -322q136 0 252 27v-174q-113 -27 -271 -27q-268 0 -419 118q-191 148 -191 457zM245 1237l236 283h194l232 -283h-185l-147 178l-148 -178h-182zM299 627h537 q-7 129 -54 198q-71 103 -210 103q-234 0 -273 -301z" />
<glyph unicode="&#xeb;" horiz-adv-x="1133" vert-adv-y="1433" d="M90 544q0 254 131.5 403t357.5 149q164 0 280 -84q190 -137 190 -449q0 -54 -2 -98h-750q31 -322 422 -322q136 0 252 27v-174q-113 -27 -271 -27q-268 0 -419 118q-191 148 -191 457zM270 1380q0 57 36.5 87.5t89 30.5t82.5 -38t30 -89.5t-38 -81t-83.5 -29.5t-81 31.5 t-35.5 88.5zM299 627h537q-7 129 -54 198q-71 103 -210 103q-234 0 -273 -301zM680 1379.5q0 56.5 36 87.5t89 31t83 -38t30 -89.5t-38 -81t-83.5 -29.5t-81 31.5t-35.5 88z" />
<glyph unicode="&#xec;" horiz-adv-x="500" vert-adv-y="1433" d="M-33 1520h223l175 -283h-168zM151 0v1065h197v-1065h-197z" />
<glyph unicode="&#xed;" horiz-adv-x="500" vert-adv-y="1433" d="M137 1237l174 283h224l-230 -283h-168zM151 0v1065h197v-1065h-197z" />
<glyph unicode="&#xee;" horiz-adv-x="500" vert-adv-y="1433" d="M-81 1237l236 283h194l232 -283h-185l-147 178l-148 -178h-182zM152 0v1065h197v-1065h-197z" />
<glyph unicode="&#xef;" horiz-adv-x="500" vert-adv-y="1433" d="M-32 1378q0 57 36.5 87.5t89 30.5t82.5 -38t30 -89.5t-38 -81t-83.5 -29.5t-81 31.5t-35.5 88.5zM151 0v1065h197v-1065h-197zM296 1377.5q0 56.5 36 87.5t89 31t83 -38t30 -89.5t-38 -81t-83.5 -29.5t-81 31.5t-35.5 88z" />
<glyph unicode="&#xf0;" horiz-adv-x="1190" vert-adv-y="1433" d="M90 485q0 242 125.5 390.5t339.5 148.5q155 0 268 -76q-53 174 -200 314l-103 -95l-80 84l95 86q-79 59 -183 117l62 113q131 -52 239 -121l111 102l80 -84l-96 -88q352 -302 352 -822q0 -262 -120 -414q-134 -171 -388 -171q-207 0 -343 127q-159 147 -159 389zM297 493 q0 -152 79.5 -250t213.5 -98t218 94q83 94 83 263.5t-97 266.5q-77 77 -188 77t-187 -57q-122 -93 -122 -296z" />
<glyph unicode="&#xf1;" horiz-adv-x="1190" vert-adv-y="1433" d="M141 0v1065h156l37 -111q67 63 147 102.5t205 39.5q192 0 289 -121q74 -93 74 -246v-729h-199v676q0 132 -51 190t-171 58t-217 -87q-31 -28 -73 -81v-756h-197zM250 1267q34 232 210 232q56 0 109 -27q72 -38 113 -64t78.5 -26t54 29t25.5 71h127q-29 -231 -206 -231 q-87 0 -244 98q-29 19 -67 19t-57 -44q-7 -17 -16 -57h-127z" />
<glyph unicode="&#xf2;" horiz-adv-x="1192" vert-adv-y="1433" d="M90 520.5q0 274.5 137.5 425t369 150.5t368.5 -150.5t137 -411.5t-137 -413t-357 -152t-353 123q-165 154 -165 428.5zM297 533.5q0 -179.5 77 -284t217.5 -104.5t222 99t81.5 298.5t-101 301.5q-76 76 -209.5 76t-210.5 -103.5t-77 -283zM341 1520h223l175 -283h-168z " />
<glyph unicode="&#xf3;" horiz-adv-x="1192" vert-adv-y="1433" d="M90 520.5q0 274.5 137.5 425t369 150.5t368.5 -150.5t137 -411.5t-137 -413t-357 -152t-353 123q-165 154 -165 428.5zM297 533.5q0 -179.5 77 -284t217.5 -104.5t222 99t81.5 298.5t-101 301.5q-76 76 -209.5 76t-210.5 -103.5t-77 -283zM478 1237l174 283h224 l-230 -283h-168z" />
<glyph unicode="&#xf4;" horiz-adv-x="1192" vert-adv-y="1433" d="M90 520.5q0 274.5 137.5 425t369 150.5t368.5 -150.5t137 -411.5t-137 -413t-357 -152t-353 123q-165 154 -165 428.5zM259 1237l236 283h194l232 -283h-185l-147 178l-148 -178h-182zM297 533.5q0 -179.5 77 -284t217.5 -104.5t222 99t81.5 298.5t-101 301.5 q-76 76 -209.5 76t-210.5 -103.5t-77 -283z" />
<glyph unicode="&#xf5;" horiz-adv-x="1192" vert-adv-y="1433" d="M90 520.5q0 274.5 137.5 425t369 150.5t368.5 -150.5t137 -411.5t-137 -413t-357 -152t-353 123q-165 154 -165 428.5zM239 1267q34 232 210 232q56 0 109 -27q72 -38 113 -64t78.5 -26t54 29t25.5 71h127q-29 -231 -206 -231q-87 0 -244 98q-29 19 -67 19t-57 -44 q-7 -17 -16 -57h-127zM297 533.5q0 -179.5 77 -284t217.5 -104.5t222 99t81.5 298.5t-101 301.5q-76 76 -209.5 76t-210.5 -103.5t-77 -283z" />
<glyph unicode="&#xf6;" horiz-adv-x="1192" vert-adv-y="1433" d="M90 520.5q0 274.5 137.5 425t369 150.5t368.5 -150.5t137 -411.5t-137 -413t-357 -152t-353 123q-165 154 -165 428.5zM278 1380q0 57 36.5 87.5t89 30.5t82.5 -38t30 -89.5t-38 -81t-83.5 -29.5t-81 31.5t-35.5 88.5zM297 533.5q0 -179.5 77 -284t217.5 -104.5t222 99 t81.5 298.5t-101 301.5q-76 76 -209.5 76t-210.5 -103.5t-77 -283zM688 1379.5q0 56.5 36 87.5t89 31t83 -38t30 -89.5t-38 -81t-83.5 -29.5t-81 31.5t-35.5 88z" />
<glyph unicode="&#xf7;" vert-adv-y="1433" d="M90 621v163h1008v-163h-1008zM457 268.5q0 61.5 43 98t100.5 36.5t94 -43.5t36.5 -97t-40 -93.5t-97 -40t-97 39t-40 100.5zM457 1140q0 65 44 100.5t100.5 35.5t93.5 -44.5t37 -101.5t-43 -93t-93.5 -36t-94.5 37t-44 102z" />
<glyph unicode="&#xf8;" horiz-adv-x="1192" vert-adv-y="1433" d="M90 525q0 270 137 420.5t367 150.5q144 0 262 -64l94 146l92 -62l-98 -149q158 -161 158 -427.5t-137 -418.5t-370 -152q-143 0 -257 64l-92 -144l-92 62l94 147q-158 157 -158 427zM291 541q0 -174 67 -277l400 615q-75 45 -164 45q-146 0 -224.5 -104.5t-78.5 -278.5z M438 184q67 -43 156 -43q135 0 221 96.5t86 274t-65 287.5z" />
<glyph unicode="&#xf9;" horiz-adv-x="1190" vert-adv-y="1433" d="M141 336v729h199v-676q0 -115 38 -173q49 -75 169.5 -75t208.5 71q47 37 96 97v756h197v-1065h-156l-37 111q-65 -62 -145 -102t-220.5 -40t-233.5 79q-116 98 -116 288zM322 1520h223l175 -283h-168z" />
<glyph unicode="&#xfa;" horiz-adv-x="1190" vert-adv-y="1433" d="M141 336v729h199v-676q0 -115 38 -173q49 -75 169.5 -75t208.5 71q47 37 96 97v756h197v-1065h-156l-37 111q-65 -62 -145 -102t-220.5 -40t-233.5 79q-116 98 -116 288zM489 1237l174 283h224l-230 -283h-168z" />
<glyph unicode="&#xfb;" horiz-adv-x="1190" vert-adv-y="1433" d="M141 336v729h199v-676q0 -115 38 -173q49 -75 169.5 -75t208.5 71q47 37 96 97v756h197v-1065h-156l-37 111q-65 -62 -145 -102t-220.5 -40t-233.5 79q-116 98 -116 288zM264 1237l236 283h194l232 -283h-185l-147 178l-148 -178h-182z" />
<glyph unicode="&#xfc;" horiz-adv-x="1190" vert-adv-y="1433" d="M141 336v729h199v-676q0 -115 38 -173q49 -75 169.5 -75t208.5 71q47 37 96 97v756h197v-1065h-156l-37 111q-65 -62 -145 -102t-220.5 -40t-233.5 79q-116 98 -116 288zM271 1380q0 57 36.5 87.5t89 30.5t82.5 -38t30 -89.5t-38 -81t-83.5 -29.5t-81 31.5t-35.5 88.5z M681 1379.5q0 56.5 36 87.5t89 31t83 -38t30 -89.5t-38 -81t-83.5 -29.5t-81 31.5t-35.5 88z" />
<glyph unicode="&#xfd;" horiz-adv-x="1032" vert-adv-y="1433" d="M0 1065h203l311 -766l328 766h190l-624 -1475h-197l201 467zM428 1237l174 283h224l-230 -283h-168z" />
<glyph unicode="&#xfe;" horiz-adv-x="1202" vert-adv-y="1433" d="M141 -410v1966h195v-602q127 142 324 142t324.5 -150.5t127.5 -410t-129.5 -413t-325.5 -153.5t-319 119v-498h-197zM337 324q3 -6 5 -9q83 -170 282 -170q125 0 203 100t78 298t-99 298q-76 77 -199 77t-205 -87q-47 -50 -65 -100v-407z" />
<glyph unicode="&#xff;" horiz-adv-x="1032" vert-adv-y="1433" d="M0 1065h203l311 -766l328 766h190l-624 -1475h-197l201 467zM204 1380q0 57 36.5 87.5t89 30.5t82.5 -38t30 -89.5t-38 -81t-83.5 -29.5t-81 31.5t-35.5 88.5zM614 1379.5q0 56.5 36 87.5t89 31t83 -38t30 -89.5t-38 -81t-83.5 -29.5t-81 31.5t-35.5 88z" />
<glyph unicode="&#x152;" horiz-adv-x="1960" vert-adv-y="1433" d="M106 704.5q0 365.5 175 552.5t473 187h1050v-191h-557v-422h535v-190h-535v-451h578v-190h-1071q-267 0 -434 148q-214 191 -214 556.5zM330 721q0 -246 117 -388.5t325 -142.5h264v1063h-264q-207 0 -324.5 -143t-117.5 -389z" />
<glyph unicode="&#x153;" horiz-adv-x="1927" vert-adv-y="1433" d="M90 520.5q0 274.5 137 425t366 150.5q261 0 398 -203q128 203 382 203q196 0 324 -120q146 -137 146 -425q0 -45 -2 -86h-749q31 -322 421 -322q137 0 252 27v-174q-113 -27 -268 -27q-347 0 -498 213q-139 -213 -405 -213q-206 0 -339 123q-165 154 -165 428.5z M297 533.5q0 -179.5 77 -284t217.5 -104.5t222 99t81.5 298.5t-101 301.5q-76 76 -209.5 76t-210.5 -103.5t-77 -283zM1094 627h536q-14 301 -263 301q-234 0 -273 -301z" />
<glyph unicode="&#x178;" horiz-adv-x="1219" vert-adv-y="1433" d="M0 1444h233l381 -721l381 721h224l-504 -932v-512h-211v512zM294 1746q0 57 36.5 87.5t89 30.5t82.5 -38t30 -89.5t-37.5 -81t-83.5 -29.5t-81.5 31.5t-35.5 88.5zM704 1745.5q0 56.5 36 87.5t89 31t83 -38t30 -89.5t-37.5 -81t-83.5 -29.5t-81.5 31.5t-35.5 88z" />
<glyph unicode="&#x2c6;" horiz-adv-x="1024" vert-adv-y="1433" d="M181 1237l236 283h194l232 -283h-185l-147 178l-148 -178h-182z" />
<glyph unicode="&#x2dc;" horiz-adv-x="1024" vert-adv-y="1433" d="M154 1267q34 232 210 232q56 0 109 -27q72 -38 113 -64t78.5 -26t54 29t25.5 71h127q-29 -231 -206 -231q-87 0 -244 98q-29 19 -67 19t-57 -44q-7 -17 -16 -57h-127z" />
<glyph unicode="&#x2000;" horiz-adv-x="949" vert-adv-y="0" />
<glyph unicode="&#x2001;" horiz-adv-x="1898" vert-adv-y="0" />
<glyph unicode="&#x2002;" horiz-adv-x="949" vert-adv-y="0" />
<glyph unicode="&#x2003;" horiz-adv-x="1898" vert-adv-y="0" />
<glyph unicode="&#x2004;" horiz-adv-x="632" vert-adv-y="0" />
<glyph unicode="&#x2005;" horiz-adv-x="474" vert-adv-y="0" />
<glyph unicode="&#x2006;" horiz-adv-x="316" vert-adv-y="0" />
<glyph unicode="&#x2007;" horiz-adv-x="316" vert-adv-y="0" />
<glyph unicode="&#x2008;" horiz-adv-x="237" vert-adv-y="0" />
<glyph unicode="&#x2009;" horiz-adv-x="379" vert-adv-y="0" />
<glyph unicode="&#x200a;" horiz-adv-x="105" vert-adv-y="0" />
<glyph unicode="&#x2010;" horiz-adv-x="803" vert-adv-y="1433" d="M82 532v205h639v-205h-639z" />
<glyph unicode="&#x2011;" horiz-adv-x="803" vert-adv-y="1433" d="M82 532v205h639v-205h-639z" />
<glyph unicode="&#x2012;" horiz-adv-x="803" vert-adv-y="1433" d="M82 532v205h639v-205h-639z" />
<glyph unicode="&#x2013;" horiz-adv-x="1024" vert-adv-y="1433" d="M0 629v176h1024v-176h-1024z" />
<glyph unicode="&#x2014;" horiz-adv-x="2048" vert-adv-y="1433" d="M0 629v176h2048v-176h-2048z" />
<glyph unicode="&#x2018;" horiz-adv-x="541" vert-adv-y="1433" d="M129 1217.5q0 65.5 49 168.5l96 201h136l-111 -231q111 -31 111 -126q0 -62 -39.5 -101t-96.5 -39t-92 25q-53 37 -53 102.5z" />
<glyph unicode="&#x2019;" horiz-adv-x="541" vert-adv-y="1433" d="M131 1090l111 231q-111 28 -111 126q0 62 39 101t102 39t101.5 -37t38.5 -96.5t-50 -163.5l-96 -200h-135z" />
<glyph unicode="&#x201a;" horiz-adv-x="541" vert-adv-y="1433" d="M131 112q0 62 39 101t102 39t101.5 -37t38.5 -96t-50 -164l-96 -201h-135l111 232q-111 30 -111 126z" />
<glyph unicode="&#x201c;" horiz-adv-x="936" vert-adv-y="1433" d="M129 1217.5q0 65.5 49 168.5l96 201h136l-111 -231q111 -31 111 -126q0 -62 -39.5 -101t-96.5 -39t-92 25q-53 37 -53 102.5zM524 1218q0 66 49 168l97 201h135l-111 -231q111 -31 111 -126q0 -62 -39 -101t-96.5 -39t-92.5 25q-53 37 -53 103z" />
<glyph unicode="&#x201d;" horiz-adv-x="936" vert-adv-y="1433" d="M131 1090l111 231q-111 28 -111 126q0 62 39 101t102 39t101.5 -37t38.5 -96.5t-50 -163.5l-96 -200h-135zM526 1090l111 231q-111 28 -111 126q0 62 39 101q40 39 103 39t101 -36.5t38 -97.5t-49 -163l-96 -200h-136z" />
<glyph unicode="&#x201e;" horiz-adv-x="936" vert-adv-y="1433" d="M131 112q0 62 39 101t102 39t101.5 -37t38.5 -96t-50 -164l-96 -201h-135l111 232q-111 30 -111 126zM526 112q0 62 39 101q40 39 103 39t101 -37t38 -97t-49 -163l-96 -201h-136l111 232q-111 30 -111 126z" />
<glyph unicode="&#x2022;" horiz-adv-x="709" vert-adv-y="1433" d="M88 741.5q0 124.5 98 205.5q71 59 184 59t193 -100q58 -73 58 -184.5t-100 -190.5q-72 -58 -168.5 -58t-180.5 72t-84 196.5z" />
<glyph unicode="&#x2026;" horiz-adv-x="2048" vert-adv-y="1433" d="M199 104.5q0 69.5 39.5 108t102 38.5t101.5 -39t39 -102t-39 -102t-96 -39t-102 33t-45 102.5zM883 104.5q0 69.5 39.5 108t102 38.5t101.5 -39t39 -102t-39 -102t-96 -39t-102 33t-45 102.5zM1567 104.5q0 69.5 39.5 108t102 38.5t101.5 -39t39 -101.5t-39 -102 t-96 -39.5t-102 33t-45 102.5z" />
<glyph unicode="&#x202f;" horiz-adv-x="379" vert-adv-y="0" />
<glyph unicode="&#x2039;" horiz-adv-x="690" vert-adv-y="1433" d="M123 532l250 410h194l-248 -410l248 -409h-194z" />
<glyph unicode="&#x203a;" horiz-adv-x="690" vert-adv-y="1433" d="M123 123l248 409l-248 410h194l250 -410l-250 -409h-194z" />
<glyph unicode="&#x205f;" horiz-adv-x="474" vert-adv-y="0" />
<glyph unicode="&#x20ac;" horiz-adv-x="1321" vert-adv-y="1433" d="M117 465v102l157 41q-4 64 -4 114t4 81h-157v102l180 47q54 200 178 316q184 170 471 170q130 0 271 -37v-164q-121 35 -240 35q-185 0 -316 -88q-84 -56 -130 -160q-14 -31 -29 -72h485v-149h-516q-4 -52 -4 -88.5t4 -100.5h516v-149h-483q46 -123 109 -192.5 t166 -103.5t208 -34t242 33v-168q-141 -31 -261 -31q-320 0 -511 201q-105 111 -156 295h-184z" />
<glyph unicode="&#x2122;" horiz-adv-x="1810" vert-adv-y="1433" d="M92 1317v127h598v-127h-227v-694h-144v694h-227zM780 623v821h197l205 -647l200 647h199v-821h-139v610l-189 -610h-149l-184 608v-608h-140z" />
<glyph unicode="&#xe000;" horiz-adv-x="1065" vert-adv-y="2130" d="M0 0v1065h1065v-1065h-1065z" />
</font>
</defs>
</svg>
